<svg width="554" height="369" viewBox="0 0 554 369" fill="none" xmlns="http://www.w3.org/2000/svg">
<g clip-path="url(#clip0_406_151)">
<mask id="mask0_406_151" style="mask-type:luminance" maskUnits="userSpaceOnUse" x="0" y="0" width="554" height="369">
<path d="M554 0H0V369H554V0Z" fill="white"/>
</mask>
<g mask="url(#mask0_406_151)">
<path d="M432.673 20.1485C429.738 18.7647 426.704 17.4467 423.687 16.2276L424.924 13.1797C427.99 14.4153 431.074 15.7663 434.075 17.1666L432.673 20.1321V20.1485Z" fill="#231F20"/>
<path d="M534.539 155.538C528.669 118.074 511.455 83.9883 484.777 56.9534C473.581 45.6023 460.918 35.7669 447.134 27.7273L448.783 24.8936C462.814 33.0816 475.708 43.0817 487.118 54.6469C514.275 82.1761 531.802 116.888 537.787 155.027L534.539 155.538Z" fill="#231F20"/>
<path d="M213.393 292.706C190.557 261.948 178.355 225.489 178.075 187.251H181.356C181.62 224.764 193.607 260.564 216.015 290.745L213.377 292.706H213.393Z" fill="#231F20"/>
<path d="M212.751 85.9487L210.063 84.0706C211.959 81.3523 213.954 78.6505 215.999 76.0474L218.588 78.0738C216.576 80.6274 214.63 83.2798 212.767 85.9487H212.751Z" fill="#231F20"/>
<path d="M243.468 52.2577L241.358 49.7536C260.204 33.872 281.738 22.2738 305.35 15.272L306.289 18.4187C283.107 25.2886 261.968 36.6726 243.468 52.2577Z" fill="#231F20"/>
<path d="M374.172 12.2575C368.484 11.6479 362.697 11.3184 356.975 11.269C355.095 11.269 353.216 11.269 351.352 11.3184L351.27 8.03998C353.183 7.99056 355.095 7.97408 357.008 7.99056C362.845 8.03998 368.748 8.36947 374.535 8.9955L374.189 12.2575H374.172Z" fill="#231F20"/>
<path d="M430.464 28.2214C427.529 26.8211 424.512 25.4702 421.511 24.251L422.764 21.2197C425.814 22.4718 428.898 23.8392 431.882 25.2725L430.464 28.2379V28.2214Z" fill="#231F20"/>
<path d="M527.597 166.131C523.673 127.316 506.41 90.6109 478.957 62.7687C465.667 49.2924 450.333 38.139 433.399 29.6381L434.866 26.7056C452.13 35.3548 467.744 46.7223 481.298 60.4622C509.262 88.8316 526.872 126.246 530.862 165.801L527.597 166.131Z" fill="#231F20"/>
<path d="M217.038 283.661C199.148 258.01 188.645 227.977 186.649 196.807L189.931 196.592C191.876 227.153 202.182 256.61 219.725 281.783L217.038 283.661Z" fill="#231F20"/>
<path d="M519.864 172.572C517.276 133.494 500.672 96.5583 473.12 68.6008C456.697 51.9284 437.274 39.1605 415.41 30.6761L416.597 27.6118C438.89 36.261 458.692 49.276 475.461 66.2943C503.557 94.8285 520.491 132.489 523.146 172.358L519.864 172.572Z" fill="#231F20"/>
<path d="M522.766 198.948L519.501 198.635C519.798 195.406 520.013 192.111 520.128 188.866L523.409 188.981C523.294 192.293 523.079 195.637 522.766 198.932V198.948Z" fill="#231F20"/>
<path d="M223.221 278.109C206.765 254.188 197.004 226.28 194.959 197.383L198.241 197.153C200.236 225.473 209.816 252.821 225.925 276.248L223.221 278.109Z" fill="#231F20"/>
<path d="M287.74 43.1473L286.322 40.1819C290.312 38.2708 294.434 36.508 298.573 34.9429L299.743 38.0072C295.687 39.5393 291.664 41.2692 287.74 43.1473Z" fill="#231F20"/>
<path d="M302.81 36.8867L301.706 33.7895C302.744 33.4106 303.8 33.0481 304.855 32.7021L305.894 35.8159C304.855 36.1618 303.833 36.5078 302.81 36.8867Z" fill="#231F20"/>
<path d="M515.066 191.271L511.785 191.106C511.9 188.948 511.95 186.774 511.966 184.665C512.312 143.198 496.451 104.054 467.282 74.4327C439.78 46.4917 403.01 29.984 363.751 27.9576L363.916 24.6792C404 26.7385 441.527 43.5921 469.624 72.1263C499.402 102.374 515.594 142.358 515.247 184.681C515.231 186.839 515.165 189.063 515.049 191.271H515.066Z" fill="#231F20"/>
<path d="M229.948 273.364C218.867 257.219 211.035 239.377 206.666 220.299L209.865 219.575C214.135 238.24 221.802 255.704 232.652 271.503L229.948 273.364Z" fill="#231F20"/>
<path d="M206.683 220.3C206.073 217.614 205.512 214.863 205.05 212.128L208.282 211.568C208.744 214.237 209.288 216.922 209.881 219.558L206.683 220.283V220.3Z" fill="#231F20"/>
<path d="M503.557 176.081C501.777 140.051 486.822 106.015 461.462 80.2318C433.729 52.0272 396.613 36.3103 356.959 35.9643H355.491V32.6694H356.992C397.52 33.0319 435.46 49.0947 463.804 77.9254C489.724 104.285 505.008 139.079 506.839 175.9L503.557 176.065V176.081Z" fill="#231F20"/>
<path d="M233.559 263.842C224.012 248.702 217.4 232.128 213.888 214.599L217.103 213.957C220.533 231.09 226.997 247.285 236.329 262.096L233.542 263.842H233.559Z" fill="#231F20"/>
<path d="M369.077 44.8441C365.071 44.4652 360.998 44.251 356.958 44.2016C353.413 44.1686 349.819 44.2675 346.274 44.5146L346.06 41.2361C349.687 40.989 353.364 40.8902 356.991 40.9231C361.114 40.9561 365.285 41.1867 369.391 41.5656L369.077 44.8276V44.8441Z" fill="#231F20"/>
<path d="M492.955 157.037C487.745 130.166 474.834 105.636 455.625 86.0805C433.432 63.4773 403.835 48.9631 372.309 45.2068L372.705 41.9448C404.973 45.7999 435.262 60.6436 457.983 83.7741C477.654 103.791 490.861 128.914 496.187 156.411L492.955 157.037Z" fill="#231F20"/>
<path d="M234.663 249.196C230.08 240.3 226.452 230.909 223.896 221.239L227.079 220.398C229.585 229.822 233.114 238.998 237.598 247.68L234.68 249.18L234.663 249.196Z" fill="#231F20"/>
<path d="M317.139 58.1724L316.183 55.0257C319.348 54.0702 322.613 53.197 325.861 52.4722L326.587 55.6683C323.421 56.3767 320.239 57.2169 317.139 58.1559V58.1724Z" fill="#231F20"/>
<path d="M371.914 53.4439C366.967 52.8343 361.938 52.5048 356.959 52.4554C352.193 52.406 347.379 52.6201 342.647 53.0814L342.317 49.8194C347.164 49.3417 352.095 49.1275 356.975 49.1769C362.087 49.2264 367.231 49.5723 372.293 50.1984L371.897 53.4604L371.914 53.4439Z" fill="#231F20"/>
<path d="M481.117 143.873C474.934 124.45 464.101 106.476 449.805 91.8962C429.871 71.5829 403.357 58.0901 375.129 53.8891L375.607 50.6436C404.528 54.9435 431.701 68.7822 452.13 89.6062C466.788 104.548 477.885 122.967 484.233 142.885L481.1 143.873H481.117Z" fill="#231F20"/>
<path d="M239.824 241.008C237.467 235.983 235.422 230.761 233.724 225.489L236.856 224.484C238.505 229.624 240.5 234.715 242.809 239.608L239.841 241.008H239.824Z" fill="#231F20"/>
<path d="M309.851 69.4242L308.647 66.3764C314.847 63.9217 321.278 61.9447 327.774 60.4785L328.5 63.6746C322.168 65.0914 315.902 67.0189 309.851 69.4078V69.4242Z" fill="#231F20"/>
<path d="M367.313 61.2364C363.883 60.9069 360.404 60.7257 356.958 60.6928C353.908 60.6598 350.841 60.7422 347.807 60.9399L347.593 57.6614C350.709 57.4637 353.858 57.3813 356.975 57.4143C360.503 57.4472 364.081 57.6449 367.61 57.9744L367.296 61.2364H367.313Z" fill="#231F20"/>
<path d="M435.312 89.6881C417.785 74.9432 396.498 65.3714 373.777 62.0106L374.255 58.7651C397.586 62.2083 419.417 72.0272 437.422 87.1675L435.312 89.6716V89.6881Z" fill="#231F20"/>
<path d="M438.972 92.901C438.577 92.5386 438.164 92.1761 437.769 91.8137L439.945 89.3589C440.357 89.7214 440.769 90.1003 441.182 90.4792L438.972 92.901Z" fill="#231F20"/>
<path d="M473.004 145.587C467.184 127.712 457.142 111.171 443.968 97.7279C442.352 96.0805 440.67 94.466 438.972 92.9173L441.182 90.4956C442.929 92.0936 444.661 93.7575 446.309 95.438C459.83 109.244 470.135 126.229 476.121 144.582L473.004 145.603V145.587Z" fill="#231F20"/>
<path d="M430.909 284.238L428.98 281.585C433.349 278.422 437.537 274.93 441.462 271.19L443.721 273.562C439.697 277.401 435.377 280.992 430.893 284.254L430.909 284.238Z" fill="#231F20"/>
<path d="M369.061 307.352L368.781 304.09C378.492 303.233 388.105 301.19 397.355 298.027L398.427 301.124C388.93 304.386 379.053 306.479 369.078 307.352H369.061Z" fill="#231F20"/>
<path d="M320.09 74.4988L319.084 71.3686C324.377 69.6717 329.835 68.3208 335.309 67.3818L335.87 70.6108C330.544 71.5334 325.251 72.8349 320.09 74.4988Z" fill="#231F20"/>
<path d="M441.742 107.398C440.571 106.08 439.351 104.779 438.148 103.543C416.647 81.5663 387.808 69.2762 356.958 68.9303C351.006 68.8644 344.971 69.2598 339.068 70.1164L338.59 66.8709C344.658 65.9978 350.841 65.5859 356.991 65.6518C388.715 66.0142 418.378 78.6503 440.489 101.253C441.742 102.522 442.979 103.856 444.199 105.224L441.742 107.415V107.398Z" fill="#231F20"/>
<path d="M464.579 146.378C460.341 134.038 454.059 122.588 445.93 112.357L448.502 110.314C456.862 120.842 463.325 132.605 467.695 145.307L464.595 146.378H464.579Z" fill="#231F20"/>
<path d="M467.349 155.719C466.821 153.626 466.228 151.518 465.584 149.458L468.717 148.486C469.377 150.595 469.987 152.753 470.531 154.911L467.349 155.702V155.719Z" fill="#231F20"/>
<path d="M429.87 274.699L427.842 272.129C430.926 269.691 433.91 267.071 436.73 264.32C440.868 260.284 444.726 255.885 448.205 251.239L450.844 253.199C447.266 257.961 443.292 262.491 439.038 266.659C436.152 269.476 433.069 272.178 429.887 274.699H429.87Z" fill="#231F20"/>
<path d="M365.252 299.362L365.054 296.083C379.201 295.226 392.887 291.75 405.764 285.737L407.149 288.702C393.909 294.897 379.811 298.472 365.252 299.362Z" fill="#231F20"/>
<path d="M405.286 89.2931C390.446 81.55 373.727 77.3654 356.958 77.1677C344.444 77.003 332.077 79.0294 320.222 83.148L319.134 80.0508C331.352 75.8003 344.048 73.708 356.991 73.8893C374.271 74.1034 391.502 78.4198 406.803 86.3935L405.286 89.3096V89.2931Z" fill="#231F20"/>
<path d="M454.62 143.297C449.426 130.611 441.924 119.194 432.311 109.375C425.171 102.077 417.042 95.8496 408.139 90.8578L409.738 87.9912C418.922 93.1313 427.298 99.5564 434.652 107.085C444.545 117.217 452.278 128.98 457.637 142.061L454.603 143.297H454.62Z" fill="#231F20"/>
<path d="M460.918 165.076C459.797 158.701 458.066 152.391 455.807 146.328L458.89 145.175C461.231 151.435 463.012 157.943 464.166 164.516L460.935 165.093L460.918 165.076Z" fill="#231F20"/>
<path d="M434.289 259.74L431.964 257.417C432.723 256.643 433.481 255.868 434.223 255.078L436.631 257.318C435.872 258.125 435.097 258.933 434.306 259.723L434.289 259.74Z" fill="#231F20"/>
<path d="M362.399 291.256L362.268 287.978C379.58 287.302 396.629 282.244 411.535 273.348L413.217 276.165C397.833 285.342 380.256 290.564 362.383 291.256H362.399Z" fill="#231F20"/>
<path d="M310.609 96.1629L309.125 93.2305C310.115 92.7197 311.121 92.242 312.143 91.7642L313.528 94.7461C312.555 95.2074 311.582 95.6687 310.609 96.1629Z" fill="#231F20"/>
<path d="M392.359 92.4233C381.048 87.9257 369.143 85.5533 356.958 85.4051C346.323 85.2568 335.771 86.8219 325.614 90.0345L324.625 86.9043C335.111 83.5764 345.994 81.9783 357.008 82.1101C369.605 82.2749 381.905 84.7131 393.596 89.3755L392.376 92.4233H392.359Z" fill="#231F20"/>
<path d="M440.736 133.84C436.762 127.086 431.964 120.809 426.474 115.191C419.862 108.42 412.327 102.637 404.066 98.0082L405.665 95.1416C414.206 99.9193 422.005 105.899 428.832 112.901C434.487 118.717 439.45 125.191 443.572 132.176L440.736 133.84Z" fill="#231F20"/>
<path d="M453.399 170.332C451.948 159.59 448.733 149.228 443.853 139.524L446.787 138.041C451.833 148.074 455.164 158.783 456.664 169.887L453.416 170.332H453.399Z" fill="#231F20"/>
<path d="M360.52 283.085L360.454 279.806C384.527 279.262 407.364 269.724 424.759 252.969L427.034 255.325C409.046 272.656 385.434 282.524 360.537 283.085H360.52Z" fill="#231F20"/>
<path d="M445.6 174.665C443.622 154.582 434.767 135.521 420.653 121.007C403.818 103.692 381.196 93.9717 356.958 93.6257C339.101 93.3457 321.689 98.321 306.586 107.909L304.822 105.141C320.469 95.1908 338.541 90.0672 357.008 90.3473C382.12 90.7097 405.566 100.776 423.011 118.717C437.653 133.774 446.837 153.528 448.881 174.335L445.617 174.665H445.6Z" fill="#231F20"/>
<path d="M448.173 197.762L444.924 197.251C445.584 193.1 445.947 188.866 446.013 184.648C446.029 183.479 446.013 182.309 445.996 181.139L449.277 181.057C449.31 182.276 449.31 183.479 449.294 184.698C449.228 189.064 448.849 193.462 448.173 197.762Z" fill="#231F20"/>
<path d="M359.63 274.864L359.58 271.585C381.938 271.256 403.126 262.458 419.219 246.84C421.197 244.929 423.11 242.886 424.891 240.794L427.397 242.919C425.534 245.094 423.555 247.219 421.511 249.196C404.808 265.407 382.829 274.518 359.63 274.864Z" fill="#231F20"/>
<path d="M310.197 115.389L308.4 112.637C314.979 108.354 322.118 104.977 329.604 102.604L330.593 105.735C323.388 108.008 316.529 111.254 310.197 115.389Z" fill="#231F20"/>
<path d="M346.373 102.39L346.01 99.1281C348.22 98.881 350.479 98.7162 352.721 98.6338L352.836 101.912C350.693 101.978 348.516 102.143 346.389 102.39H346.373Z" fill="#231F20"/>
<path d="M368.945 102.934C365.005 102.291 360.965 101.929 356.958 101.879H356.068L356.084 98.5845H357.008C361.179 98.6504 365.367 99.0293 369.473 99.6883L368.945 102.934Z" fill="#231F20"/>
<path d="M401.758 115.899C392.755 109.837 382.779 105.669 372.128 103.51L372.787 100.298C383.868 102.538 394.239 106.888 403.604 113.181L401.774 115.899H401.758Z" fill="#231F20"/>
<path d="M437.603 178.058C436.35 158.882 428.254 140.694 414.816 126.839C412.359 124.318 409.721 121.913 406.968 119.722L409.012 117.151C411.881 119.425 414.635 121.913 417.174 124.549C431.156 138.964 439.565 157.893 440.885 177.844L437.603 178.058Z" fill="#231F20"/>
<path d="M436.4 210.925L433.3 209.838C436.136 201.716 437.636 193.248 437.768 184.632C437.785 183.512 437.768 182.391 437.768 181.271L441.049 181.189C441.082 182.358 441.082 183.512 441.049 184.681C440.901 193.643 439.335 202.457 436.4 210.909V210.925Z" fill="#231F20"/>
<path d="M358.327 266.626C357.865 266.626 357.403 266.626 356.958 266.626C355.639 266.61 354.32 266.544 353.001 266.462L353.215 263.183C354.485 263.265 355.738 263.315 357.008 263.331C378.129 263.71 398.163 255.753 413.398 240.992C416.91 237.581 420.142 233.842 422.978 229.855L425.649 231.749C422.698 235.901 419.351 239.806 415.69 243.348C400.141 258.389 379.828 266.61 358.327 266.61V266.626Z" fill="#231F20"/>
<path d="M288.053 152.424L285.102 150.974C286.091 148.964 287.163 146.971 288.317 145.06L291.136 146.74C290.032 148.569 288.993 150.48 288.053 152.407V152.424Z" fill="#231F20"/>
<path d="M292.851 144.022L290.114 142.209C290.724 141.27 291.367 140.348 292.027 139.442L294.698 141.369C294.071 142.242 293.461 143.132 292.868 144.022H292.851Z" fill="#231F20"/>
<path d="M305.448 129.392L303.255 126.954C308.268 122.44 313.841 118.601 319.843 115.521L321.343 118.437C315.605 121.385 310.263 125.076 305.448 129.392Z" fill="#231F20"/>
<path d="M365.153 110.71C364.082 110.578 363.026 110.463 361.938 110.364L362.218 107.085C363.34 107.184 364.461 107.3 365.565 107.448L365.153 110.71Z" fill="#231F20"/>
<path d="M380.817 114.466C378.789 113.741 376.728 113.099 374.65 112.555L375.491 109.375C377.651 109.952 379.811 110.611 381.922 111.369L380.817 114.466Z" fill="#231F20"/>
<path d="M358.327 258.405C357.865 258.405 357.404 258.405 356.942 258.405C355.969 258.389 355.013 258.356 354.057 258.29L354.238 255.012C355.161 255.061 356.068 255.094 356.992 255.111C375.904 255.44 393.876 248.372 407.562 235.193C421.379 221.865 429.178 203.924 429.524 184.648C429.871 165.192 422.566 146.724 408.98 132.671C407.133 130.76 405.154 128.914 403.093 127.218L405.187 124.697C407.331 126.476 409.392 128.387 411.338 130.397C425.534 145.093 433.168 164.384 432.805 184.714C432.443 204.863 424.297 223.627 409.837 237.565C395.855 251.041 377.602 258.422 358.311 258.422L358.327 258.405Z" fill="#231F20"/>
<path d="M288.68 181.551L285.398 181.337C286.553 163.561 294.236 147.004 307.015 134.697C319.711 122.473 336.364 115.504 353.908 115.076L353.99 118.354C337.271 118.766 321.393 125.422 309.29 137.069C297.089 148.799 289.768 164.599 288.68 181.551Z" fill="#231F20"/>
<path d="M411.107 148.585C408.798 144.977 406.127 141.583 403.143 138.486C399.433 134.631 395.245 131.237 390.71 128.387L392.458 125.603C397.223 128.585 401.626 132.16 405.517 136.213C408.65 139.458 411.453 143.033 413.877 146.822L411.107 148.585Z" fill="#231F20"/>
<path d="M415.69 157.053C414.833 155.109 413.843 153.182 412.788 151.32L415.641 149.689C416.762 151.649 417.784 153.676 418.691 155.702L415.69 157.037V157.053Z" fill="#231F20"/>
<path d="M359.514 250.152L359.448 246.873C375.261 246.577 390.282 240.349 401.741 229.361C414.009 217.598 420.934 201.716 421.28 184.648C421.428 177.301 420.324 170.052 417.999 163.066L421.115 162.029C423.555 169.36 424.71 177.004 424.561 184.714C424.198 202.655 416.91 219.36 404.017 231.733C391.947 243.315 376.151 249.855 359.514 250.168V250.152Z" fill="#231F20"/>
<path d="M293.972 193.775C293.593 190.76 293.445 187.68 293.511 184.632C293.874 167.778 300.733 152.127 312.852 140.529C324.839 129.063 340.536 122.951 357.024 123.313C359.629 123.362 362.268 123.593 364.856 123.988L364.362 127.234C361.905 126.855 359.415 126.641 356.942 126.591C341.327 126.262 326.471 132.045 315.127 142.901C303.651 153.89 297.138 168.734 296.792 184.714C296.726 187.597 296.874 190.513 297.237 193.38L293.972 193.775Z" fill="#231F20"/>
<path d="M359.217 241.914L359.168 238.636C372.886 238.422 385.945 233.051 395.921 223.529C406.622 213.314 412.706 199.508 413.036 184.632C413.382 169.574 407.792 155.257 397.322 144.302C390.826 137.514 382.664 132.374 373.694 129.442L374.717 126.328C384.181 129.425 392.821 134.862 399.68 142.028C410.76 153.61 416.663 168.767 416.3 184.698C415.938 200.447 409.507 215.077 398.163 225.884C387.578 235.983 373.744 241.667 359.184 241.898L359.217 241.914Z" fill="#231F20"/>
<path d="M358.327 233.693C357.865 233.693 357.404 233.693 356.942 233.677H356.513L356.629 230.382H357.024C369.358 230.761 381.097 226.23 390.1 217.696C399.251 209.047 404.462 197.301 404.808 184.632C405.154 171.782 400.422 159.524 391.502 150.134C382.45 140.611 370.182 135.175 356.942 134.829C343.52 134.499 330.742 139.425 320.948 148.733C311.022 158.173 305.366 170.941 305.036 184.714C304.888 190.793 305.795 196.823 307.74 202.606L304.624 203.644C302.547 197.499 301.59 191.09 301.739 184.632C302.101 169.986 308.103 156.394 318.672 146.345C329.093 136.443 342.712 131.155 357.008 131.55C371.122 131.913 384.197 137.712 393.86 147.877C403.39 157.91 408.435 170.991 408.073 184.731C407.71 198.273 402.12 210.843 392.343 220.102C383.043 228.916 370.99 233.71 358.31 233.71L358.327 233.693Z" fill="#231F20"/>
<path d="M358.327 225.456C357.866 225.456 357.387 225.456 356.926 225.44C355.079 225.374 353.216 225.192 351.402 224.879L351.963 221.65C353.644 221.93 355.359 222.112 357.041 222.178C367.165 222.524 376.827 218.866 384.28 211.881C391.865 204.78 396.234 195.093 396.564 184.632C396.91 173.973 393.035 163.791 385.665 155.949C378.163 147.976 367.956 143.412 356.942 143.066C345.714 142.72 335.013 146.806 326.785 154.566C318.425 162.44 313.627 173.149 313.297 184.731C313.149 190.019 313.94 195.241 315.672 200.266L312.572 201.337C310.709 195.95 309.851 190.332 310.016 184.632C310.379 172.193 315.54 160.661 324.542 152.177C333.413 143.824 344.972 139.425 357.058 139.788C368.962 140.15 379.977 145.093 388.072 153.692C396.036 162.16 400.224 173.182 399.862 184.714C399.499 196.065 394.767 206.56 386.539 214.253C378.789 221.502 368.83 225.456 358.344 225.456H358.327Z" fill="#231F20"/>
<path d="M358.261 217.219C357.816 217.219 357.354 217.219 356.909 217.186C353.644 217.054 350.429 216.428 347.362 215.324L348.467 212.227C351.22 213.215 354.122 213.776 357.057 213.907C364.823 214.253 372.655 211.37 378.459 206.016C384.395 200.546 387.99 192.737 388.319 184.582C388.649 176.246 385.549 167.926 379.828 161.732C373.974 155.406 365.631 151.6 356.925 151.271C348.038 150.941 339.167 154.252 332.605 160.365C325.795 166.691 321.871 175.34 321.541 184.698C321.343 190.513 322.58 196.378 325.152 201.634L322.201 203.083C319.398 197.334 318.029 190.942 318.243 184.582C318.606 174.335 322.91 164.879 330.363 157.959C337.568 151.271 347.28 147.63 357.041 147.992C366.604 148.355 375.788 152.539 382.235 159.491C388.55 166.312 391.963 175.505 391.601 184.698C391.238 193.709 387.264 202.359 380.685 208.405C374.585 214.023 366.472 217.186 358.261 217.186V217.219Z" fill="#231F20"/>
<path d="M358.261 208.998C357.799 208.998 357.338 208.998 356.876 208.965C350.561 208.602 344.576 205.719 340.437 201.057C336.43 196.527 334.336 190.53 334.716 184.582C335.078 178.816 337.749 173.363 342.036 169.623C346.191 165.999 351.666 164.137 357.074 164.516C362.301 164.879 367.231 167.333 370.594 171.238C373.843 175.011 375.475 179.953 375.079 184.813C374.7 189.492 372.474 193.891 368.946 196.856C365.565 199.706 361.13 201.123 356.81 200.728C352.671 200.349 348.797 198.322 346.224 195.176C343.751 192.177 342.564 188.273 342.96 184.5C343.339 180.892 345.153 177.581 347.923 175.373C350.544 173.281 353.925 172.325 357.173 172.737C360.24 173.132 363.026 174.731 364.84 177.119C366.538 179.376 367.264 182.226 366.835 184.912C366.439 187.432 365.038 189.69 363.01 191.09C361.114 192.391 358.789 192.886 356.629 192.424C354.634 191.996 352.902 190.793 351.913 189.113C350.99 187.564 350.759 185.752 351.286 184.138C351.765 182.655 352.82 181.485 354.172 180.925C355.425 180.414 356.794 180.513 357.849 181.189C358.888 181.848 359.465 182.984 359.333 184.105C359.184 185.34 358.162 186.279 356.975 186.279V183.001C356.464 183.001 356.118 183.363 356.068 183.726C356.052 183.874 356.085 183.973 356.118 183.989C355.969 183.89 355.705 183.857 355.409 183.989C354.963 184.171 354.601 184.599 354.419 185.143C354.188 185.867 354.304 186.708 354.749 187.449C355.277 188.339 356.216 188.981 357.321 189.212C358.607 189.492 359.992 189.179 361.147 188.388C362.449 187.498 363.339 186.032 363.603 184.385C363.9 182.556 363.389 180.628 362.235 179.08C360.965 177.383 358.97 176.263 356.777 175.983C354.403 175.686 351.929 176.394 349.984 177.927C347.906 179.574 346.538 182.095 346.241 184.83C345.928 187.746 346.851 190.744 348.764 193.083C350.792 195.555 353.842 197.153 357.123 197.449C360.586 197.779 364.131 196.625 366.852 194.335C369.721 191.93 371.534 188.355 371.831 184.533C372.144 180.53 370.792 176.46 368.121 173.363C365.318 170.118 361.229 168.075 356.86 167.778C352.309 167.449 347.708 169.03 344.213 172.078C340.585 175.258 338.31 179.887 338.013 184.78C337.683 189.854 339.481 194.994 342.91 198.882C346.472 202.902 351.633 205.373 357.074 205.686C362.696 205.999 368.368 204.006 372.639 200.2C377.041 196.263 379.745 190.579 380.059 184.582C380.389 178.421 378.163 172.21 373.958 167.564C369.638 162.786 363.405 159.854 356.876 159.541C350.149 159.195 343.421 161.65 338.392 166.23C333.215 170.925 330.066 177.679 329.753 184.747C329.538 189.327 330.511 193.956 332.556 198.108L329.604 199.558C327.329 194.912 326.24 189.739 326.471 184.599C326.834 176.675 330.379 169.08 336.183 163.808C341.855 158.651 349.44 155.9 357.041 156.262C364.428 156.625 371.485 159.936 376.398 165.373C381.18 170.661 383.703 177.729 383.34 184.764C382.977 191.617 379.877 198.125 374.815 202.639C370.248 206.724 364.279 208.998 358.245 208.998H358.261Z" fill="#231F20"/>
<path d="M209.106 300.679C183.483 267.615 169.551 226.412 169.847 184.648V183.1L173.145 183.149V184.665C172.832 225.687 186.534 266.181 211.712 298.67L209.106 300.679Z" fill="#231F20"/>
<path d="M200.137 90.199L197.334 88.4855C197.911 87.5465 198.505 86.6075 199.098 85.6685L201.868 87.4313C201.291 88.3538 200.698 89.2764 200.137 90.199Z" fill="#231F20"/>
<path d="M203.649 84.6802L200.912 82.868C202.132 81.0228 203.401 79.1776 204.687 77.3984L207.359 79.3094C206.105 81.0722 204.852 82.8844 203.649 84.6802Z" fill="#231F20"/>
<path d="M209.271 76.6731L206.633 74.7126C209.271 71.1705 212.058 67.6779 214.943 64.3335L217.433 66.4753C214.597 69.7702 211.86 73.1969 209.271 76.6731Z" fill="#231F20"/>
<path d="M235.851 47.9412L233.691 45.47C255.406 26.5406 281.639 12.7348 309.538 5.56836L310.362 8.74797C282.958 15.7827 257.187 29.3413 235.851 47.9412Z" fill="#231F20"/>
<path d="M425.666 8.15509C422.649 6.95243 419.549 5.81568 416.465 4.77778L417.521 1.66406C420.653 2.71844 423.819 3.88814 426.886 5.10727L425.682 8.15509H425.666Z" fill="#231F20"/>
<path d="M443.49 16.3101C441.56 15.3052 439.598 14.3167 437.636 13.3941L439.054 10.4287C441.049 11.3842 443.044 12.3892 445.007 13.4106L443.49 16.3266V16.3101Z" fill="#231F20"/>
<path d="M543.196 157.679C537.672 117.728 519.007 79.886 490.614 51.1212C478.347 38.6993 464.43 28.0401 449.228 19.4239L450.844 16.5737C466.31 25.3383 480.474 36.1786 492.939 48.8147C521.827 78.0737 540.821 116.575 546.427 157.234L543.179 157.679H543.196Z" fill="#231F20"/>
<path d="M205.116 308.917C176.74 273.826 161.29 229.69 161.587 184.648C161.587 183.989 161.587 183.347 161.603 182.688L164.884 182.754C164.884 183.396 164.868 184.039 164.868 184.681C164.571 228.965 179.757 272.359 207.655 306.857L205.1 308.917H205.116Z" fill="#231F20"/>
<path d="M165.874 166.46L162.609 166.131C162.823 163.956 163.104 161.732 163.4 159.524L166.649 159.969C166.352 162.144 166.088 164.319 165.874 166.46Z" fill="#231F20"/>
<path d="M187.803 95.0922L184.918 93.5271C191.217 81.8301 198.752 70.7591 207.309 60.5942L209.816 62.703C201.406 72.6866 194.003 83.5764 187.803 95.0757V95.0922Z" fill="#231F20"/>
<path d="M235.406 37.5459L233.328 35.0088C252.834 19.1437 274.896 7.36431 298.936 0.0166016L299.892 3.14679C276.264 10.3792 254.565 21.9609 235.406 37.5459Z" fill="#231F20"/>
<path d="M552.726 169.887C549.494 123.033 529.51 78.7821 496.434 45.3055C487.052 35.7996 476.648 27.2163 465.535 19.8027L467.365 17.0679C478.676 24.6133 489.245 33.3284 498.775 42.9826C532.395 77.0193 552.726 122.012 556.007 169.656L552.726 169.887Z" fill="#231F20"/>
<path d="M198.735 314.139C169.171 277.582 153.046 231.601 153.359 184.665C153.359 182.589 153.425 180.497 153.491 178.421L156.772 178.536C156.69 180.579 156.657 182.622 156.64 184.665C156.343 230.843 172.189 276.099 201.291 312.063L198.735 314.123V314.139Z" fill="#231F20"/>
<path d="M157.679 165.505L154.415 165.175C154.645 162.984 154.909 160.776 155.206 158.585L158.454 159.03C158.157 161.188 157.91 163.347 157.679 165.521V165.505Z" fill="#231F20"/>
<path d="M174.794 102.72L171.81 101.352C172.271 100.347 172.733 99.3424 173.211 98.3374L176.179 99.7542C175.701 100.743 175.256 101.731 174.794 102.72Z" fill="#231F20"/>
<path d="M177.614 96.8216L174.679 95.3554C183.599 77.4639 195.091 61.0386 208.826 46.5244L211.217 48.7814C197.697 63.065 186.402 79.2267 177.63 96.8216H177.614Z" fill="#231F20"/>
<path d="M220.5 39.5722L218.274 37.1669C219.082 36.409 219.906 35.6677 220.731 34.9263L222.924 37.3646C222.116 38.0895 221.308 38.8308 220.5 39.5722Z" fill="#231F20"/>
<path d="M238.159 25.025L236.213 22.3726C248.266 13.5422 261.342 6.02975 275.044 0.065918L276.363 3.08078C262.875 8.94577 250.031 16.3264 238.159 25.025Z" fill="#231F20"/>
<path d="M564.696 186.658L561.415 186.609C561.415 185.966 561.432 185.307 561.432 184.665C561.778 130.002 540.772 78.436 502.271 39.4733C493.713 30.8077 484.315 22.8669 474.373 15.8651L476.269 13.1797C486.376 20.2968 495.923 28.3694 504.629 37.1669C543.739 76.7556 565.092 129.145 564.746 184.681C564.746 185.34 564.746 185.999 564.729 186.658H564.696Z" fill="#231F20"/>
<path d="M193.673 320.976C162.049 282.673 144.785 234.254 145.098 184.665V182.902L148.396 182.951V184.698C148.066 233.529 165.049 281.19 196.196 318.9L193.657 320.993L193.673 320.976Z" fill="#231F20"/>
<path d="M149.995 160.117L146.73 159.706C146.862 158.602 147.011 157.514 147.176 156.411L150.424 156.872C150.275 157.943 150.127 159.03 149.995 160.117Z" fill="#231F20"/>
<path d="M164.142 106.542L161.108 105.29C170.029 83.6915 182.379 63.8725 197.828 46.3599L200.301 48.5345C185.099 65.7835 172.947 85.2896 164.159 106.558L164.142 106.542Z" fill="#231F20"/>
<path d="M202.462 46.0961L200.038 43.8885C202.577 41.1042 205.215 38.353 207.903 35.7005C209.931 33.6906 212.025 31.7137 214.136 29.7861L216.345 32.2079C214.268 34.086 212.207 36.0465 210.211 38.0235C207.573 40.6265 204.968 43.3283 202.478 46.0796L202.462 46.0961Z" fill="#231F20"/>
<path d="M236.758 15.8819L234.878 13.1965C241.209 8.7648 247.838 4.62965 254.615 0.922852L256.198 3.80592C249.536 7.4633 242.99 11.5326 236.758 15.8984V15.8819Z" fill="#231F20"/>
<path d="M569.66 180.167C568.835 124.993 546.971 72.9664 508.108 33.6413C497.226 22.6362 485.123 12.8008 472.13 4.39873L473.911 1.64746C487.102 10.1813 499.386 20.165 510.433 31.3348C549.906 71.253 572.1 124.087 572.941 180.118L569.66 180.167Z" fill="#231F20"/>
<path d="M189.37 328.654C177.168 314.304 166.847 298.422 158.668 281.47L161.62 280.053C169.666 296.759 179.84 312.409 191.86 326.545L189.353 328.67L189.37 328.654Z" fill="#231F20"/>
<path d="M149.699 260.036C141.454 237.005 137.151 212.919 136.871 188.487L140.152 188.454C140.432 212.54 144.686 236.247 152.798 258.949L149.699 260.053V260.036Z" fill="#231F20"/>
<path d="M141.817 159.08L138.552 158.668C138.833 156.477 139.129 154.285 139.476 152.094L142.724 152.605C142.394 154.763 142.081 156.921 141.817 159.08Z" fill="#231F20"/>
<path d="M150.193 120.809L147.061 119.82C156.162 91.039 170.787 64.9102 190.557 42.1421L193.03 44.3003C173.557 66.7224 159.147 92.4723 150.177 120.809H150.193Z" fill="#231F20"/>
<path d="M195.207 41.8296L192.767 39.6385C195.751 36.3106 198.884 33.0157 202.066 29.869C205.149 26.8212 208.381 23.8228 211.646 20.9727L213.806 23.4439C210.591 26.261 207.425 29.21 204.374 32.2084C201.225 35.3056 198.142 38.5511 195.207 41.8296Z" fill="#231F20"/>
<path d="M223.897 15.1241L221.885 12.5211C227.112 8.4683 232.603 4.61322 238.176 1.05469L239.94 3.82244C234.449 7.33155 229.041 11.1207 223.897 15.1076V15.1241Z" fill="#231F20"/>
<path d="M581.053 191.848L577.772 191.716C577.854 189.344 577.92 186.971 577.92 184.648C578.267 125.587 555.545 69.8855 513.929 27.8092C506.509 20.3132 498.479 13.2785 490.07 6.91927L492.048 4.2998C500.589 10.7579 508.735 17.8914 516.253 25.5027C558.48 68.2051 581.548 124.73 581.201 184.665C581.201 187.021 581.136 189.426 581.037 191.848H581.053Z" fill="#231F20"/>
<path d="M186.418 337.83C176.872 327.088 168.298 315.408 160.944 303.085L163.763 301.404C171.018 313.546 179.46 325.079 188.875 335.655L186.418 337.83Z" fill="#231F20"/>
<path d="M136.425 245.193C136.145 244.122 135.865 243.051 135.584 241.98L138.767 241.173C139.031 242.227 139.311 243.282 139.591 244.336L136.425 245.193Z" fill="#231F20"/>
<path d="M134.793 238.751C133.013 231.239 131.595 223.561 130.572 215.917L133.82 215.489C134.826 223.018 136.211 230.596 137.976 237.993L134.777 238.751H134.793Z" fill="#231F20"/>
<path d="M128.709 192.77C128.643 190.563 128.61 188.355 128.61 186.131H131.891C131.891 188.306 131.924 190.497 131.99 192.671L128.709 192.77Z" fill="#231F20"/>
<path d="M134.249 153.528L131 153.05C131.165 151.963 131.33 150.859 131.512 149.771L134.76 150.299C134.595 151.369 134.414 152.457 134.265 153.528H134.249Z" fill="#231F20"/>
<path d="M135.881 143.857L132.649 143.247C138.091 114.779 148.742 87.9584 164.324 63.5264L167.094 65.2892C151.743 89.3587 141.223 115.801 135.865 143.857H135.881Z" fill="#231F20"/>
<path d="M182.444 44.0864L179.905 42.0106C180.598 41.1539 181.307 40.2972 182.016 39.457L184.539 41.5657C183.83 42.4059 183.137 43.2462 182.444 44.0864Z" fill="#231F20"/>
<path d="M193.245 31.8129L190.854 29.5559C192.602 27.7107 194.416 25.8491 196.246 24.0533C199.131 21.2032 202.149 18.3861 205.166 15.7007L207.342 18.1554C204.358 20.8078 201.39 23.5756 198.554 26.3928C196.757 28.172 194.976 29.9842 193.245 31.8129Z" fill="#231F20"/>
<path d="M209.799 15.9972L207.656 13.5095C213.08 8.83075 218.802 4.36611 224.655 0.230957L226.552 2.91633C220.781 7.00206 215.142 11.4008 209.799 16.0137V15.9972Z" fill="#231F20"/>
<path d="M584.45 155.34C578.267 105.273 555.298 57.9251 519.766 22.0103C516.781 18.9954 513.698 16.0464 510.582 13.2293L512.791 10.791C515.957 13.6576 519.09 16.656 522.107 19.7038C558.151 56.1294 581.465 104.153 587.715 154.944L584.45 155.34Z" fill="#231F20"/>
<path d="M201.983 364.782C201.143 364.058 200.318 363.333 199.494 362.591L201.687 360.153C202.495 360.878 203.319 361.603 204.143 362.311L201.983 364.782Z" fill="#231F20"/>
<path d="M187.523 351.108C176.74 340.021 166.995 327.83 158.569 314.864L161.323 313.085C169.633 325.869 179.229 337.896 189.864 348.835L187.507 351.125L187.523 351.108Z" fill="#231F20"/>
<path d="M120.366 186.23V184.665C120.399 179.673 120.58 174.632 120.926 169.656L124.208 169.887C123.861 174.796 123.68 179.772 123.647 184.681V186.23H120.366Z" fill="#231F20"/>
<path d="M129.451 134.302L126.252 133.577C132.171 107.563 142.378 82.917 156.574 60.3467L159.361 62.093C145.362 84.3503 135.288 108.651 129.451 134.302Z" fill="#231F20"/>
<path d="M172.502 43.3449L169.914 41.335C173.294 36.9857 176.872 32.6858 180.549 28.6001L182.989 30.7912C179.361 34.8275 175.849 39.0615 172.502 43.3449Z" fill="#231F20"/>
<path d="M185.182 28.3531L182.758 26.1291C185.231 23.4437 187.803 20.7913 190.392 18.2212C196.427 12.2574 202.857 6.57366 209.486 1.30176L211.53 3.87181C204.984 9.06134 198.653 14.6792 192.7 20.5606C190.145 23.0812 187.605 25.7172 185.165 28.3531H185.182Z" fill="#231F20"/>
<path d="M592.776 155.554C586.758 104.548 563.823 56.0138 528.208 18.8799L530.582 16.6064C566.692 54.251 589.924 103.461 596.041 155.175L592.776 155.554Z" fill="#231F20"/>
<path d="M194.3 369C190.474 365.59 186.715 362.031 183.104 358.39C176.327 351.553 169.897 344.239 163.978 336.644L166.566 334.634C172.403 342.113 178.751 349.329 185.429 356.084C188.991 359.675 192.7 363.201 196.476 366.562L194.283 369.017L194.3 369Z" fill="#231F20"/>
<path d="M115.502 179.162L112.22 179.063C112.435 171.353 113.028 163.561 113.968 155.916L117.233 156.328C116.293 163.874 115.716 171.551 115.502 179.162Z" fill="#231F20"/>
<path d="M121.124 133.758L117.909 133.05C123.927 105.916 134.447 80.2155 149.154 56.6567L151.941 58.3866C137.431 81.6324 127.043 106.987 121.107 133.758H121.124Z" fill="#231F20"/>
<path d="M159.196 47.4803L156.508 45.6022C161.57 38.3863 167.094 31.3681 172.931 24.7617L175.404 26.9364C169.666 33.4604 164.208 40.3797 159.212 47.4968L159.196 47.4803Z" fill="#231F20"/>
<path d="M179.774 22.0598L177.366 19.8193C178.125 19.012 178.883 18.2047 179.642 17.3975L182.016 19.671C181.257 20.4618 180.516 21.2526 179.774 22.0598Z" fill="#231F20"/>
<path d="M184.308 17.3316L181.966 15.0416C182.824 14.1519 183.698 13.2788 184.588 12.4221C188.413 8.64938 192.42 4.94257 196.476 1.41699L198.62 3.90467C194.613 7.38082 190.656 11.0218 186.88 14.7615C186.006 15.6182 185.149 16.4749 184.291 17.348L184.308 17.3316Z" fill="#231F20"/>
<path d="M600.79 153.033C594.508 102.604 573.139 56.0138 538.958 18.3033L541.398 16.0957C576.024 54.3169 597.69 101.533 604.054 152.638L600.79 153.05V153.033Z" fill="#231F20"/>
<path d="M107.406 174.928L104.125 174.78C104.322 170.398 104.636 165.933 105.064 161.551L108.329 161.864C107.917 166.197 107.604 170.595 107.406 174.928Z" fill="#231F20"/>
<path d="M112.913 132.786L109.698 132.094C118.189 93.1976 136.063 56.3767 161.34 25.6514L163.879 27.7437C138.915 58.0736 121.289 94.4002 112.913 132.786Z" fill="#231F20"/>
<path d="M165.973 25.223L163.466 23.0978C168.297 17.3976 173.425 11.8291 178.751 6.57374L179.576 5.75L181.867 8.08941L181.043 8.89667C175.8 14.0862 170.721 19.5722 165.956 25.2066L165.973 25.223Z" fill="#231F20"/>
<path d="M601.696 115.652C592.281 81.6815 576.238 50.5773 553.995 23.1964L556.551 21.1206C579.074 48.8475 595.332 80.3636 604.862 114.779L601.696 115.652Z" fill="#231F20"/>
<path d="M99.3925 170.348L96.1113 170.151C96.3751 165.752 96.7543 161.304 97.249 156.938L100.513 157.3C100.035 161.617 99.6563 165.999 99.3925 170.348Z" fill="#231F20"/>
<path d="M103.449 137.877L100.217 137.267C109.154 90.2484 130.852 46.6399 162.939 11.1699L165.379 13.3775C133.688 48.4027 112.27 91.4511 103.449 137.877Z" fill="#231F20"/>
<path d="M91.2309 168.767L87.9497 168.553C91.4947 113.824 111.347 62.1919 145.362 19.2095L147.934 21.2523C114.347 63.7076 94.7429 114.713 91.2309 168.783V168.767Z" fill="#231F20"/>
<path d="M149.996 18.6826L147.44 16.6233C148.825 14.9099 150.243 13.213 151.677 11.5161L154.184 13.6413C152.766 15.3053 151.364 16.9857 149.996 18.6826Z" fill="#231F20"/>
<path d="M83.0854 166.954L79.8042 166.724C83.5965 112.127 103.234 60.3635 136.59 17.0186L139.196 19.0121C106.235 61.8463 86.8283 113 83.0689 166.938L83.0854 166.954Z" fill="#231F20"/>
<path d="M141.224 16.4418L138.651 14.4154C140.02 12.6855 141.405 10.9557 142.823 9.25879L145.362 11.3511C143.961 13.0315 142.592 14.7284 141.24 16.4418H141.224Z" fill="#231F20"/>
<path d="M75.8799 155.175L72.6152 154.813C77.5618 109.771 93.4072 65.9979 118.453 28.2544L121.19 30.0666C96.441 67.3818 80.7605 110.644 75.8799 155.175Z" fill="#231F20"/>
<path d="M123.004 27.3481L120.283 25.5029C122.13 22.7846 124.059 20.0498 126.021 17.3809L128.676 19.3249C126.747 21.9773 124.834 24.6792 123.004 27.3481Z" fill="#231F20"/>
<path d="M67.817 153.05L64.5522 152.671C64.7996 150.48 65.0799 148.289 65.3767 146.098L68.6249 146.542C68.3281 148.701 68.0643 150.875 67.817 153.05Z" fill="#231F20"/>
<path d="M69.5978 140.068L66.3496 139.557C72.879 98.7825 87.5867 60.5777 110.093 25.9644L112.847 27.7437C90.6041 61.9616 76.0448 99.7545 69.5813 140.068H69.5978Z" fill="#231F20"/>
<path d="M61.09 141.056L57.8418 140.562C64.0414 99.7872 78.2544 61.3682 100.068 26.376L102.855 28.1058C81.2883 62.7191 67.2237 100.726 61.09 141.056Z" fill="#231F20"/>
<path d="M53.637 135.455L50.4053 134.911C50.5866 133.824 50.768 132.737 50.9659 131.649L54.1976 132.226C53.9998 133.297 53.8184 134.384 53.637 135.455Z" fill="#231F20"/>
<path d="M56.0775 122.572L52.8623 121.896C59.9688 88.2552 72.533 56.2284 90.1921 26.7222L93.0116 28.4026C75.5339 57.5958 63.1016 89.2766 56.0775 122.572Z" fill="#231F20"/>
<path d="M51.1799 107.366L47.9976 106.542C48.2779 105.471 48.5582 104.4 48.8385 103.346L52.0043 104.202C51.724 105.257 51.4437 106.311 51.1634 107.366H51.1799Z" fill="#231F20"/>
<path d="M64.552 66.9535L61.5181 65.7179C67.3385 51.4509 74.2637 37.4803 82.0957 24.2017L84.9317 25.8657C77.1821 38.996 70.3229 52.8183 64.552 66.9535Z" fill="#231F20"/>
<path d="M60.5292 55.3714L57.5283 54.0534C61.9802 43.9874 66.9927 34.0367 72.4174 24.4814L75.2699 26.1124C69.8947 35.5688 64.9316 45.4207 60.5292 55.3879V55.3714Z" fill="#231F20"/>
<path d="M52.664 52.7686L49.6631 51.4506C54.082 41.3846 59.0615 31.4174 64.4533 21.8291L67.3223 23.4437C61.98 32.9331 57.05 42.8014 52.6805 52.7686H52.664Z" fill="#231F20"/>
<path d="M43.5296 53.1307L40.5122 51.8457C44.387 42.7352 48.6905 33.6906 53.3402 24.959L56.2422 26.4912C51.6419 35.1404 47.3714 44.1026 43.5296 53.1143V53.1307Z" fill="#231F20"/>
<path d="M32.0043 59.5564L28.9375 58.3702C32.9277 48.123 37.462 37.9581 42.4085 28.1392L45.3435 29.6054C40.4464 39.3419 35.9615 49.408 32.0043 59.5564Z" fill="#231F20"/>
<path d="M21.8964 62.9665L18.813 61.8297C22.2261 52.5545 26.0844 43.2957 30.256 34.3335L33.2404 35.7173C29.1018 44.5972 25.293 53.7736 21.9129 62.9665H21.8964Z" fill="#231F20"/>
<path d="M13.0261 63.2796L9.92627 62.1758C10.3055 61.1379 10.6682 60.0999 11.0474 59.062L14.1308 60.1988C13.7515 61.2202 13.3723 62.2581 13.0096 63.2796H13.0261Z" fill="#231F20"/>
<path d="M15.2847 57.1176L12.2178 55.9644C13.7677 51.8622 15.4166 47.727 17.1149 43.6743L20.1488 44.9428C18.4669 48.9627 16.8181 53.0648 15.2847 57.1341V57.1176Z" fill="#231F20"/>
<path d="M22.7377 38.9134L19.7368 37.5954C20.182 36.5905 20.6271 35.5855 21.0888 34.5806L24.0897 35.9315C23.6445 36.9364 23.1993 37.9249 22.7542 38.9299L22.7377 38.9134Z" fill="#231F20"/>
<path d="M3.11632 66.6734L0 65.619C0.346257 64.5811 0.709003 63.5267 1.07175 62.4888L4.17158 63.5597C3.80883 64.5976 3.46257 65.6355 3.11632 66.6569V66.6734Z" fill="#231F20"/>
</g>
</g>
<defs>
<clipPath id="clip0_406_151">
<rect width="554" height="369" fill="white"/>
</clipPath>
</defs>
</svg>
